<svg xmlns="http://www.w3.org/2000/svg" viewBox="0 0 400 400" width="400" height="400" role="img" aria-label="Ürün görseli henüz eklenmedi">
  <defs>
    <linearGradient id="pmBg" x1="0" y1="0" x2="0" y2="1">
      <stop offset="0" stop-color="#fff7f9"/>
      <stop offset="1" stop-color="#ffeef3"/>
    </linearGradient>
  </defs>

  <rect width="400" height="400" fill="url(#pmBg)"/>

  <!-- pasta dilimi silüeti -->
  <g fill="none" stroke="#f3d9e0" stroke-width="6" stroke-linecap="round" stroke-linejoin="round">
    <path d="M126 236h148v52a10 10 0 0 1-10 10H136a10 10 0 0 1-10-10z"/>
    <path d="M126 236c0-30 33-46 74-46s74 16 74 46"/>
    <path d="M140 214c8-12 22-18 34-12 10 5 16 2 22-6 7-9 20-11 30-4 9 6 20 8 30 3"/>
  </g>

  <!-- kiraz -->
  <circle cx="200" cy="160" r="15" fill="#ff7895"/>
  <path d="M200 145c2-12 10-19 20-21" fill="none" stroke="#e83f67" stroke-width="5" stroke-linecap="round"/>

  <text x="200" y="342" text-anchor="middle" font-family="-apple-system, BlinkMacSystemFont, 'Segoe UI', Roboto, Arial, sans-serif" font-size="21" font-weight="700" fill="#e83f67">PastaMarket</text>
  <text x="200" y="366" text-anchor="middle" font-family="-apple-system, BlinkMacSystemFont, 'Segoe UI', Roboto, Arial, sans-serif" font-size="14" fill="#667085">Görsel yakında</text>
</svg>
